<svg width="300mm" height="300mm" viewBox="0 0 300 300" xmlns="http://www.w3.org/2000/svg" class="prefix__suni" style="background-repeat:no-repeat;background-image:linear-gradient(rgba(253,246,231,.9),rgba(255,229,179,.9));background-color:rgba(253,246,231,.9)"><defs><linearGradient id="prefix__linear_clothes"><stop offset="0" stop-color="#d6714f"/><stop offset="1" stop-color="#fe6e4b"/></linearGradient><linearGradient id="prefix__linear_music" x2="100%" y2="100%"><stop offset="0" stop-color="#ffe6b2"/><stop offset="1" stop-color="#6ffe25"/></linearGradient><linearGradient id="prefix__linear_headset_shell" x1="0" y1="0" x2="0" y2="100%"><stop offset="0" stop-color="#fe8500"/><stop offset="1" stop-color="#fd5a00"/></linearGradient><linearGradient id="prefix__linear_headset_ear" x1="0" y1="0" x2="0" y2="100%"><stop offset="0" stop-color="#fffed3"/><stop offset="1" stop-color="#ffe69d"/></linearGradient><linearGradient id="prefix__linear_headset" x1="0" y1="0" x2="0%" y2="100%"><stop offset="0" stop-color="#f55d04" stop-opacity=".8"/><stop offset=".7" stop-color="#ff5f02" stop-opacity=".8"/><stop offset="1" stop-color="#ff5f02" stop-opacity="0"/></linearGradient><linearGradient id="prefix__linear_hair"><stop offset="0" stop-color="#ffd277"/><stop offset="1" stop-color="#fe974b"/></linearGradient><filter id="prefix__fitler_hair"><feColorMatrix values="1 0 0 0 0 0 1 0 0 0 0 0 1 0 0 0 0 0 .95 0" result="hair"/><feColorMatrix values="1 0 0 0 0 0 1 0 0 0 0 0 1 0 0 0 0 0 .8 0"/><feGaussianBlur stdDeviation="2"/><feOffset in="one" dy="2.5" result="shadow"/><feMerge result="base"><feMergeNode in="shadow"/><feMergeNode in="hair"/></feMerge></filter><filter id="prefix__fitler_brow" width="1.6" height="1.6"><feColorMatrix values="1 0 0 0 0 0 1 0 0 0 0 0 1 0 0 0 0 0 .8 0"/><feGaussianBlur stdDeviation="2"/><feOffset in="one" dy=".4" result="shadow"/><feMerge><feMergeNode in="shadow"/><feMergeNode in="SourceGraphic"/></feMerge></filter><filter id="prefix__fitler_nose" width="1.6" height="2"><feColorMatrix values="1 0 0 0 0 0 1 0 0 0 0 0 1 0 0 0 0 0 .4 0"/><feGaussianBlur stdDeviation=".5"/><feOffset in="one" dx=".6" dy=".4" result="shadow"/><feMerge><feMergeNode in="shadow"/><feMergeNode in="SourceGraphic"/></feMerge></filter><radialGradient id="prefix__radial_neck" cx="50%" cy="20%" r="80%"><stop offset="10%" stop-color="#c5b5b1"/><stop offset="60%" stop-color="#f2d8d4"/></radialGradient></defs><g transform="translate(-38.29 -3.759) scale(1.23507)"><path fill="url(#prefix__radial_neck)" fill-opacity=".95" filter="url(#prefix__fitler_hair)" d="M137 180h30v45h-30z"/><path d="M151.195 197.4c14.369.12 30.63-16.235 36.705-29.925 6.075-13.689 7.292-35.785 7.108-42.356-.185-6.57-5.155-30.117-19.882-35.775-16.868-6.48-42.524-8.214-55.778 4.928-11.733 11.634-14.2 25.16-14.359 34.315-.184 10.587 3.13 26.649 11.23 41.799 8.1 15.15 22.895 26.913 34.976 27.014z" fill="#f2d8d4" filter="url(#prefix__fitler_hair)" stroke="rgba(201,181,175,0.288)" stroke-width=".3"/><path d="M163.848 122.332c5.148-1.333 17.392-.73 25.81 1.642 8.418 2.37.933 1.438-5.523.198-6.455-1.24-18.405-.59-22.5.293-4.094.884-2.935-.8 2.213-2.133z" fill="#8a6d42" fill-opacity=".5" filter="url(#prefix__fitler_brow)"/><path d="M124.838 137.563c7.119-1.243 7.995-1.267 15.891-.218 7.896 1.05 5.535 2.88-1.103 1.865s-7.398-.806-14.157.366c-6.76 1.172-7.75-.769-.631-2.012zm42.431-.733c6.903-1.332 7.68-1.595 15.724.403 8.045 1.999 6.539 3.789-.755 1.885-7.294-1.904-7.159-1.79-14.447-.364-7.289 1.426-7.426-.592-.522-1.924z" fill="#80694f" fill-opacity=".7"/><path d="M150.202 150.391c.016 1.12-.263 1.717-.553 2.807-.095.358-.232.702-.349 1.053-.7 1.909-1.618 3.484-2.803 5.09-.11.33-.747.628-.877.944-.26.629.467 1.217.833 1.592.561.534 1.235.687 1.795 1.225.574.45 1.386 1.128 2.262 2.378l2.53-.851c-1.172-1.464-1.002-1.165-2.05-2.272-1.048-1.107-1.358-1.363-1.94-1.872-.279-.28-.774-.382-.473-1.165 1.519-2.18 2.908-4.966 3.443-6.891.306-1.135.635-2.985.724-4.15zm6.37 25.8c6.88-.9 7.93.094 1.461 1.212-6.468 1.117-8.616.996-14.502.036-5.886-.96-3.453-1.74 1.257-1.212 4.71.53 4.904.864 11.784-.036z" fill="#9e634c" fill-opacity=".6" filter="url(#prefix__fitler_nose)"/><rect fill-opacity=".95" x="208.896" y="110.938" width="15" height="25" fill="url(#prefix__linear_headset_shell)" rx="6" ry="6" transform="rotate(4.273)"/><rect fill-opacity=".95" x="76.727" y="132.557" width="15" height="25" fill="url(#prefix__linear_headset_shell)" rx="6" ry="6" transform="rotate(-4.404)"/><rect fill-opacity=".95" x="201.915" y="102.025" width="15" height="35" fill="url(#prefix__linear_headset_ear)" rx="7.5" ry="7.5" transform="rotate(5.034)"/><rect fill-opacity=".95" x="85.626" y="126.72" width="15" height="35" fill="url(#prefix__linear_headset_ear)" rx="7.5" ry="7.5" transform="rotate(-3.948)"/><path d="M98.95 147.61c20.152-1.322 41.485-3.915 62.432-28.643 11.643 6.854 21.716 24.903 42.11 23.013 22.034-35.255.948-69.85-7.59-77.12-4.723-4.02-14.94-1.292-18.852-3.55-5.934-3.426-10.772-11.14-17.873-11.262-7.1-.123-12.25 3.359-16.77 7.223-6.61-3.673-28.558-10.03-43.335 2.815-5.328 4.873-9.244 11.076-4.529 25.34-1.115 7.593-20.32 10.28-20.81 21.543-.49 11.263 2.888 14.843 20.075 27.666-4.207 5.695.236 13.298 5.141 12.976z" fill="url(#prefix__linear_hair)" filter="url(#prefix__fitler_hair)" fill-opacity=".95"/><path d="M94.155 124.865c-3.775-17.21.702-30.472 8.632-41.51 11.404-15.875 28.584-21.83 46.769-21.83 18.186 0 40.147 7.887 49.548 21.83 7.812 11.587 12.316 30.404 8.367 41.51l-5.093-2.811c1.973-11.806-1.158-25.91-8.533-35.921-8.667-11.764-28.729-19.052-44.289-19.052-15.56 0-35.44 7.854-42.112 19.052-6.672 11.199-10.966 19.218-7.898 35.92-1.461 1.579 1.059 0-5.391 2.812z" fill="url(#prefix__linear_headset)" filter="url(#prefix__fitler_hair)"/><rect fill-opacity=".1" x="208.896" y="110.938" width="15" height="25" fill="url(#prefix__linear_headset_shell)" rx="6" ry="6" transform="rotate(4.273)"/><rect fill-opacity=".1" x="76.727" y="132.557" width="15" height="25" fill="url(#prefix__linear_headset_shell)" rx="6" ry="6" transform="rotate(-4.404)"/><rect fill-opacity=".4" x="201.915" y="102.025" width="15" height="35" fill="url(#prefix__linear_headset_ear)" rx="7.5" ry="7.5" transform="rotate(5.034)"/><rect fill-opacity=".4" x="85.626" y="126.72" width="15" height="35" fill="url(#prefix__linear_headset_ear)" rx="7.5" ry="7.5" transform="rotate(-3.948)"/></g><path d="M244.288 54.128v17.396q0 .777-.528 1.382-.528.606-1.336.94-.807.334-1.607.497-.8.163-1.5.163-.698 0-1.498-.163t-1.608-.497q-.807-.334-1.335-.94-.528-.605-.528-1.382 0-.777.528-1.382.528-.606 1.335-.94.808-.334 1.608-.497.8-.163 1.499-.163 1.63 0 2.982.606v-8.341l-11.929 3.68V75.5q0 .777-.528 1.383-.528.605-1.336.94-.807.333-1.607.496-.8.163-1.5.163-.698 0-1.498-.163t-1.608-.497q-.807-.334-1.335-.94-.528-.605-.528-1.382 0-.776.528-1.382.528-.606 1.335-.94.808-.334 1.608-.497.8-.163 1.499-.163 1.63 0 2.982.606v-15.02q0-.481.295-.878.295-.396.761-.551l12.923-3.976q.187-.062.435-.062.621 0 1.056.435.435.434.435 1.056z" fill="url(#prefix__linear_music)" style="transform-origin:50% 50%;animation:musicDance 8s ease infinite" transform="scale(.4)"/><path d="M261.63 99.34v1.459a.579.579 0 01-.578.579h-1.158a.579.579 0 01-.578-.579v-.312a3.137 3.137 0 00-1.737-2.732c-.208-.116-.393-.255-.578-.382v10.417a4.375 4.375 0 01-4.63 4.005 4.375 4.375 0 01-4.63-4.051 4.375 4.375 0 014.63-4.051 4.965 4.965 0 012.315.567V91.54a.579.579 0 01.579-.58h1.157a.579.579 0 01.579.58v.196a3.09 3.09 0 001.655 2.801 5.347 5.347 0 012.974 4.804z" fill="url(#prefix__linear_music)" style="transform-origin:50% 50%;animation:musicDance 8s ease -5s infinite" transform="scale(.4)"/><path d="M223.8 265.509c-9.045-4.554-54.802-18.2-55.138-18.2a.728.728 0 00-.73.694c-.369 8.964-8.508 14.763-17.6 14.763-9.091 0-19.014-5.495-19.383-14.458a.728.728 0 00-.73-.694c-6.335 0-33.499 7.342-48.884 13.167-15.041 4.102-29.213 28.63-27.189 46.873 26.31 16.867 201.427 34.163 191.394-6.888-5.308-13.965-11.928-30.317-21.739-35.257z" fill="url(#prefix__linear_clothes)"/><style>@keyframes musicDance{0%{transform:scale(.4);opacity:0}20%{opacity:1}50%{transform:scale(1)}to{opacity:0;transform:scale(1)}}</style></svg>